<mxfile host="app.diagrams.net" modified="2021-06-16T08:12:03.823Z" agent="5.0 (Windows NT 10.0; Win64; x64) AppleWebKit/537.36 (KHTML, like Gecko) Chrome/91.0.4472.101 Safari/537.36 Edg/91.0.864.48" etag="BY3GqF36cUWp2oeQezMy" version="14.7.9" type="github">
  <diagram id="dod7VkcaT5RHwagx6OF8" name="第 1 页">
    <mxGraphModel dx="1422" dy="762" grid="1" gridSize="10" guides="1" tooltips="1" connect="1" arrows="1" fold="1" page="1" pageScale="1" pageWidth="827" pageHeight="1169" math="0" shadow="0">
      <root>
        <mxCell id="0" />
        <mxCell id="1" parent="0" />
        <mxCell id="pdzRpqIfNqisQc50ZTmc-38" style="edgeStyle=none;rounded=0;orthogonalLoop=1;jettySize=auto;html=1;exitX=1;exitY=0.75;exitDx=0;exitDy=0;" parent="1" edge="1">
          <mxGeometry relative="1" as="geometry">
            <mxPoint x="400" y="302" as="targetPoint" />
            <mxPoint x="330" y="302.0000000000001" as="sourcePoint" />
            <Array as="points">
              <mxPoint x="370" y="302" />
            </Array>
          </mxGeometry>
        </mxCell>
        <mxCell id="pdzRpqIfNqisQc50ZTmc-1" value="提交购书单" style="rounded=0;whiteSpace=wrap;html=1;" parent="1" vertex="1">
          <mxGeometry x="240" y="280" width="90" height="40" as="geometry" />
        </mxCell>
        <mxCell id="pdzRpqIfNqisQc50ZTmc-25" style="edgeStyle=none;rounded=0;orthogonalLoop=1;jettySize=auto;html=1;exitX=1;exitY=0.5;exitDx=0;exitDy=0;entryX=0;entryY=0.5;entryDx=0;entryDy=0;entryPerimeter=0;" parent="1" source="pdzRpqIfNqisQc50ZTmc-4" target="pdzRpqIfNqisQc50ZTmc-6" edge="1">
          <mxGeometry relative="1" as="geometry" />
        </mxCell>
        <mxCell id="pdzRpqIfNqisQc50ZTmc-39" style="edgeStyle=none;rounded=0;orthogonalLoop=1;jettySize=auto;html=1;exitX=0;exitY=0.5;exitDx=0;exitDy=0;startArrow=classic;startFill=1;endArrow=none;endFill=0;" parent="1" source="pdzRpqIfNqisQc50ZTmc-4" edge="1">
          <mxGeometry relative="1" as="geometry">
            <mxPoint x="470" y="300" as="targetPoint" />
          </mxGeometry>
        </mxCell>
        <mxCell id="pdzRpqIfNqisQc50ZTmc-41" style="edgeStyle=orthogonalEdgeStyle;rounded=0;orthogonalLoop=1;jettySize=auto;html=1;exitX=0.5;exitY=0;exitDx=0;exitDy=0;startArrow=none;startFill=0;endArrow=classic;endFill=1;" parent="1" source="pdzRpqIfNqisQc50ZTmc-4" edge="1">
          <mxGeometry relative="1" as="geometry">
            <mxPoint x="125" y="260" as="targetPoint" />
            <Array as="points">
              <mxPoint x="605" y="220" />
              <mxPoint x="125" y="220" />
            </Array>
          </mxGeometry>
        </mxCell>
        <mxCell id="pdzRpqIfNqisQc50ZTmc-4" value="发行人员审核" style="rounded=0;whiteSpace=wrap;html=1;" parent="1" vertex="1">
          <mxGeometry x="560" y="280" width="90" height="40" as="geometry" />
        </mxCell>
        <mxCell id="pdzRpqIfNqisQc50ZTmc-6" value="领书登记表" style="shape=cylinder3;whiteSpace=wrap;html=1;boundedLbl=1;backgroundOutline=1;size=15;" parent="1" vertex="1">
          <mxGeometry x="740" y="260" width="70" height="80" as="geometry" />
        </mxCell>
        <mxCell id="pdzRpqIfNqisQc50ZTmc-10" value="领书单、发票" style="text;html=1;align=center;verticalAlign=middle;resizable=0;points=[];autosize=1;strokeColor=none;" parent="1" vertex="1">
          <mxGeometry x="300" y="200" width="90" height="20" as="geometry" />
        </mxCell>
        <mxCell id="pdzRpqIfNqisQc50ZTmc-15" value="" style="edgeStyle=orthogonalEdgeStyle;rounded=0;orthogonalLoop=1;jettySize=auto;html=1;" parent="1" source="pdzRpqIfNqisQc50ZTmc-11" target="pdzRpqIfNqisQc50ZTmc-1" edge="1">
          <mxGeometry relative="1" as="geometry" />
        </mxCell>
        <mxCell id="pdzRpqIfNqisQc50ZTmc-18" value="" style="rounded=0;orthogonalLoop=1;jettySize=auto;html=1;" parent="1" source="pdzRpqIfNqisQc50ZTmc-11" target="pdzRpqIfNqisQc50ZTmc-17" edge="1">
          <mxGeometry relative="1" as="geometry" />
        </mxCell>
        <mxCell id="pdzRpqIfNqisQc50ZTmc-11" value="教师或学生" style="shape=umlActor;verticalLabelPosition=bottom;verticalAlign=top;html=1;outlineConnect=0;" parent="1" vertex="1">
          <mxGeometry x="110" y="270" width="30" height="60" as="geometry" />
        </mxCell>
        <mxCell id="pdzRpqIfNqisQc50ZTmc-16" value="购书单" style="text;html=1;align=center;verticalAlign=middle;resizable=0;points=[];autosize=1;strokeColor=none;" parent="1" vertex="1">
          <mxGeometry x="280" y="350" width="50" height="20" as="geometry" />
        </mxCell>
        <mxCell id="pdzRpqIfNqisQc50ZTmc-24" value="" style="edgeStyle=none;rounded=0;orthogonalLoop=1;jettySize=auto;html=1;" parent="1" source="pdzRpqIfNqisQc50ZTmc-17" target="pdzRpqIfNqisQc50ZTmc-23" edge="1">
          <mxGeometry relative="1" as="geometry" />
        </mxCell>
        <mxCell id="pdzRpqIfNqisQc50ZTmc-17" value="领书" style="whiteSpace=wrap;html=1;verticalAlign=top;" parent="1" vertex="1">
          <mxGeometry x="190" y="460" width="120" height="30" as="geometry" />
        </mxCell>
        <mxCell id="pdzRpqIfNqisQc50ZTmc-19" value="领书单" style="text;html=1;align=center;verticalAlign=middle;resizable=0;points=[];autosize=1;strokeColor=none;" parent="1" vertex="1">
          <mxGeometry x="190" y="375" width="50" height="20" as="geometry" />
        </mxCell>
        <mxCell id="pdzRpqIfNqisQc50ZTmc-21" style="edgeStyle=none;rounded=0;orthogonalLoop=1;jettySize=auto;html=1;exitX=0.5;exitY=0;exitDx=0;exitDy=0;exitPerimeter=0;entryX=0.5;entryY=1;entryDx=0;entryDy=0;" parent="1" source="pdzRpqIfNqisQc50ZTmc-20" target="pdzRpqIfNqisQc50ZTmc-17" edge="1">
          <mxGeometry relative="1" as="geometry" />
        </mxCell>
        <mxCell id="pdzRpqIfNqisQc50ZTmc-28" value="" style="edgeStyle=none;rounded=0;orthogonalLoop=1;jettySize=auto;html=1;" parent="1" source="pdzRpqIfNqisQc50ZTmc-20" target="pdzRpqIfNqisQc50ZTmc-27" edge="1">
          <mxGeometry relative="1" as="geometry" />
        </mxCell>
        <mxCell id="pdzRpqIfNqisQc50ZTmc-20" value="书库" style="shape=cylinder3;whiteSpace=wrap;html=1;boundedLbl=1;backgroundOutline=1;size=15;" parent="1" vertex="1">
          <mxGeometry x="220" y="620" width="60" height="80" as="geometry" />
        </mxCell>
        <mxCell id="pdzRpqIfNqisQc50ZTmc-22" value="对应图书" style="text;html=1;align=center;verticalAlign=middle;resizable=0;points=[];autosize=1;strokeColor=none;" parent="1" vertex="1">
          <mxGeometry x="250" y="530" width="60" height="20" as="geometry" />
        </mxCell>
        <mxCell id="pdzRpqIfNqisQc50ZTmc-23" value="出库表" style="shape=cylinder3;whiteSpace=wrap;html=1;boundedLbl=1;backgroundOutline=1;size=15;" parent="1" vertex="1">
          <mxGeometry x="80" y="435" width="60" height="80" as="geometry" />
        </mxCell>
        <mxCell id="pdzRpqIfNqisQc50ZTmc-30" value="" style="edgeStyle=none;rounded=0;orthogonalLoop=1;jettySize=auto;html=1;" parent="1" source="pdzRpqIfNqisQc50ZTmc-27" target="pdzRpqIfNqisQc50ZTmc-29" edge="1">
          <mxGeometry relative="1" as="geometry" />
        </mxCell>
        <mxCell id="pdzRpqIfNqisQc50ZTmc-32" value="" style="edgeStyle=none;rounded=0;orthogonalLoop=1;jettySize=auto;html=1;" parent="1" source="pdzRpqIfNqisQc50ZTmc-27" target="pdzRpqIfNqisQc50ZTmc-31" edge="1">
          <mxGeometry relative="1" as="geometry" />
        </mxCell>
        <mxCell id="pdzRpqIfNqisQc50ZTmc-54" value="" style="edgeStyle=none;rounded=0;orthogonalLoop=1;jettySize=auto;html=1;startArrow=none;startFill=0;endArrow=classic;endFill=1;" parent="1" source="pdzRpqIfNqisQc50ZTmc-27" target="pdzRpqIfNqisQc50ZTmc-53" edge="1">
          <mxGeometry relative="1" as="geometry" />
        </mxCell>
        <mxCell id="pdzRpqIfNqisQc50ZTmc-27" value="登记缺书" style="rounded=0;whiteSpace=wrap;html=1;" parent="1" vertex="1">
          <mxGeometry x="450" y="647.5" width="110" height="25" as="geometry" />
        </mxCell>
        <mxCell id="pdzRpqIfNqisQc50ZTmc-29" value="缺书登记表" style="shape=cylinder3;whiteSpace=wrap;html=1;boundedLbl=1;backgroundOutline=1;size=15;" parent="1" vertex="1">
          <mxGeometry x="680" y="620" width="60" height="80" as="geometry" />
        </mxCell>
        <mxCell id="pdzRpqIfNqisQc50ZTmc-49" style="edgeStyle=none;rounded=0;orthogonalLoop=1;jettySize=auto;html=1;exitX=0;exitY=0.3333333333333333;exitDx=0;exitDy=0;exitPerimeter=0;entryX=0.5;entryY=1;entryDx=0;entryDy=0;startArrow=none;startFill=0;endArrow=classic;endFill=1;" parent="1" source="pdzRpqIfNqisQc50ZTmc-31" target="pdzRpqIfNqisQc50ZTmc-42" edge="1">
          <mxGeometry relative="1" as="geometry" />
        </mxCell>
        <mxCell id="pdzRpqIfNqisQc50ZTmc-31" value="书库采购人员" style="shape=umlActor;verticalLabelPosition=bottom;verticalAlign=top;html=1;outlineConnect=0;" parent="1" vertex="1">
          <mxGeometry x="600" y="530" width="30" height="60" as="geometry" />
        </mxCell>
        <mxCell id="pdzRpqIfNqisQc50ZTmc-35" value="教材发行人员" style="shape=umlActor;verticalLabelPosition=bottom;verticalAlign=top;html=1;outlineConnect=0;" parent="1" vertex="1">
          <mxGeometry x="422" y="270" width="30" height="60" as="geometry" />
        </mxCell>
        <mxCell id="pdzRpqIfNqisQc50ZTmc-43" style="rounded=0;orthogonalLoop=1;jettySize=auto;html=1;exitX=0;exitY=1;exitDx=0;exitDy=0;startArrow=none;startFill=0;endArrow=classic;endFill=1;entryX=0.855;entryY=0;entryDx=0;entryDy=4.35;entryPerimeter=0;" parent="1" source="pdzRpqIfNqisQc50ZTmc-42" target="pdzRpqIfNqisQc50ZTmc-20" edge="1">
          <mxGeometry relative="1" as="geometry">
            <mxPoint x="300" y="580" as="targetPoint" />
          </mxGeometry>
        </mxCell>
        <mxCell id="pdzRpqIfNqisQc50ZTmc-45" style="edgeStyle=none;rounded=0;orthogonalLoop=1;jettySize=auto;html=1;exitX=0.5;exitY=0;exitDx=0;exitDy=0;startArrow=none;startFill=0;endArrow=classic;endFill=1;" parent="1" source="pdzRpqIfNqisQc50ZTmc-42" edge="1">
          <mxGeometry relative="1" as="geometry">
            <mxPoint x="440" y="360.0000000000001" as="targetPoint" />
          </mxGeometry>
        </mxCell>
        <mxCell id="pdzRpqIfNqisQc50ZTmc-48" style="edgeStyle=none;rounded=0;orthogonalLoop=1;jettySize=auto;html=1;exitX=1;exitY=0.5;exitDx=0;exitDy=0;startArrow=none;startFill=0;endArrow=classic;endFill=1;" parent="1" source="pdzRpqIfNqisQc50ZTmc-42" target="pdzRpqIfNqisQc50ZTmc-47" edge="1">
          <mxGeometry relative="1" as="geometry" />
        </mxCell>
        <mxCell id="pdzRpqIfNqisQc50ZTmc-42" value="新书入库" style="rounded=0;whiteSpace=wrap;html=1;" parent="1" vertex="1">
          <mxGeometry x="390" y="460" width="106" height="30" as="geometry" />
        </mxCell>
        <mxCell id="pdzRpqIfNqisQc50ZTmc-44" value="新书" style="text;html=1;align=center;verticalAlign=middle;resizable=0;points=[];autosize=1;strokeColor=none;" parent="1" vertex="1">
          <mxGeometry x="330" y="560" width="40" height="20" as="geometry" />
        </mxCell>
        <mxCell id="pdzRpqIfNqisQc50ZTmc-46" value="进书通知" style="text;html=1;align=center;verticalAlign=middle;resizable=0;points=[];autosize=1;strokeColor=none;" parent="1" vertex="1">
          <mxGeometry x="455" y="400" width="60" height="20" as="geometry" />
        </mxCell>
        <mxCell id="pdzRpqIfNqisQc50ZTmc-47" value="进库表" style="shape=cylinder3;whiteSpace=wrap;html=1;boundedLbl=1;backgroundOutline=1;size=15;shadow=1;" parent="1" vertex="1">
          <mxGeometry x="660" y="435" width="60" height="80" as="geometry" />
        </mxCell>
        <mxCell id="pdzRpqIfNqisQc50ZTmc-50" value="购买的书籍" style="text;html=1;align=center;verticalAlign=middle;resizable=0;points=[];autosize=1;strokeColor=none;" parent="1" vertex="1">
          <mxGeometry x="465" y="530" width="80" height="20" as="geometry" />
        </mxCell>
        <mxCell id="pdzRpqIfNqisQc50ZTmc-53" value="待购登记表" style="shape=cylinder;whiteSpace=wrap;html=1;boundedLbl=1;backgroundOutline=1;rounded=0;" parent="1" vertex="1">
          <mxGeometry x="470" y="725" width="75" height="80" as="geometry" />
        </mxCell>
      </root>
    </mxGraphModel>
  </diagram>
</mxfile>
